# Blender 3.3.0
# www.blender.org
o Cube
v -16.969385 -0.175138 16.969385
v -16.969385 14.175132 16.969387
v -16.969385 -0.175132 -16.969385
v -16.969385 14.175138 -16.969383
v 16.969385 -0.175138 16.969385
v 16.969385 14.175132 16.969387
v 16.969385 -0.175132 -16.969385
v 16.969385 14.175138 -16.969383
v 20.281269 0.410112 -20.281269
v -20.281269 0.410112 -20.281269
v 20.281269 0.410112 20.281269
v -20.281269 0.410112 20.281269
vn 1.0000 -0.0000 -0.0000
vn -0.0000 -0.0000 1.0000
vn -1.0000 -0.0000 -0.0000
vn -0.0000 -0.0000 -1.0000
vn -0.0000 1.0000 -0.0000
vn -0.0000 -1.0000 -0.0000
vt 0.997736 2.405515
vt 0.250700 0.481385
vt 0.998316 1.774986
vt 0.251281 -0.149146
vt 0.998897 1.144456
vt 1.000641 -0.747137
vt 0.250118 1.111916
vt 0.248956 2.372977
vt 0.249537 1.742447
vt 1.001223 -1.377669
vt 0.998316 1.774987
vt 0.251281 -0.149146
vt 0.999479 0.513923
vt 0.251862 -0.779677
vt 1.000060 -0.116607
vt 0.250118 1.111916
vt 1.000060 -0.116607
vt 0.251862 -0.779677
vt 0.998897 1.144456
vt 0.249537 1.742448
vt 0.252444 -1.410208
vt 1.000641 -0.747137
vt 0.243115 0.979130
vt -0.003497 0.979130
vt 0.243115 0.020870
vt -0.003497 0.020870
s 0
f 3/8/1 2/3/1 1/1/1
f 7/18/2 4/10/2 3/6/2
f 5/12/3 8/22/3 7/17/3
f 1/2/4 6/15/4 5/13/4
f 1/2/5 7/19/5 3/7/5
f 6/16/6 4/11/6 8/20/6
f 3/8/1 4/9/1 2/3/1
f 7/18/2 8/21/2 4/10/2
f 5/12/3 6/14/3 8/22/3
f 1/2/4 2/4/4 6/15/4
f 1/2/5 5/13/5 7/19/5
f 6/16/6 2/5/6 4/11/6
f 11/25/5 10/24/5 12/26/5
f 11/25/5 9/23/5 10/24/5
